<svg xmlns="http://www.w3.org/2000/svg" fill="none" viewBox="0 0 48 48"><path fill="#2f88ff" fill-rule="evenodd" stroke="#000" stroke-linecap="round" stroke-linejoin="round" stroke-width="4" d="M8 12a4 4 0 1 0 0-8 4 4 0 0 0 0 8m2 30a6 6 0 1 0 0-12 6 6 0 0 0 0 12m28 2a6 6 0 1 0 0-12 6 6 0 0 0 0 12M22 28a8 8 0 1 0 0-16 8 8 0 0 0 0 16m12-16a4 4 0 1 0 0-8 4 4 0 0 0 0 8" clip-rule="evenodd"/><path stroke="#000" stroke-linecap="round" stroke-linejoin="round" stroke-width="4" d="m11 11 4 4m15-3-2 2m6 19.5L28 26m-14 5 4-4"/></svg>